<?xml version="1.0" encoding="utf-8"?>
<!-- Generator: Adobe Illustrator 18.1.0, SVG Export Plug-In . SVG Version: 6.00 Build 0)  -->
<svg version="1.1" id="Layer_1" xmlns="http://www.w3.org/2000/svg" xmlns:xlink="http://www.w3.org/1999/xlink" x="0px" y="0px"
	 viewBox="0 0 81.9 65.8" enable-background="new 0 0 81.9 65.8" xml:space="preserve">
<path fill="#F15A29" stroke="#000000" stroke-width="2" stroke-miterlimit="10" d="M58.1,8.9c-6.2-5-9.8-3.7-15.3-4.8
	c-6.5-1.4-30.5,5-34,21.1C7.5,30.6,5.6,37.7,14,47.1c7.3,8.2,16.7,14.3,28.7,13c29.1-3.2,32.3,0.1,34-28
	C77.3,21.3,67.2,16.3,58.1,8.9z"/>
<path stroke="#000000" stroke-miterlimit="10" d="M57,48l-2.1-1.5L48.7,40L38.4,29.7l-3.6-3l-1-0.6l-1.6-1.3l-1.5-0.7
	c-1.5-0.4-2-1.2-2.4-1.7c-3.6-3.9-4.6-6-0.1-6.3l1.6-0.6c1.2-1.3,4,1.3,5.8,3.8L62,44.6c0.3-0.4,0.4,0.6,0.6,1.7
	c0.2,1.5-0.3,1.3-0.8,1.8l0,0c-0.4,0.4-0.4,0.7-1.4,0.8c-1.3,0.1-1.3,0.1-1.9,0C57.8,48.7,57.4,48.4,57,48z"/>
<path d="M58.7,17l-0.7-0.7c0.9-3.1-3.9,0.9-5.3,2.4L28.2,41.5c-1.3,1.2-5.2,2.3-4.2,6l0.5,2.1c0.6,0.6,2.8-0.6,3.5-0.5
	c0.9,0,1.9-0.3,2.7-1.1l3.4-3.4l23.3-22.9C58.8,20.4,60,18.2,58.7,17z"/>
<path fill="none" stroke="#000000" stroke-width="2" stroke-miterlimit="10" d="M80.7,32.9c-1.9,31.6-5.5,27.9-39.1,31.5
	C27.7,65.8,17,58.9,8.5,49.7C-1.1,39.2,1,31.2,2.4,25.2C6.4,7,34.1-0.1,41.6,1.4c6.4,1.3,10.5-0.2,17.7,5.4
	C69.7,15.1,81.4,20.8,80.7,32.9z"/>
</svg>
