<?xml version="1.0" encoding="utf-8"?>
<!-- Generator: Adobe Illustrator 18.1.0, SVG Export Plug-In . SVG Version: 6.00 Build 0)  -->
<svg version="1.1" id="Layer_1" xmlns="http://www.w3.org/2000/svg" xmlns:xlink="http://www.w3.org/1999/xlink" x="0px" y="0px"
	 viewBox="0 0 81.9 65.8" enable-background="new 0 0 81.9 65.8" xml:space="preserve">
<path fill="#F15A29" stroke="#000000" stroke-width="2" stroke-miterlimit="10" d="M76.7,32.1c-1.6,28.1-4.8,24.8-34,28
	c-12,1.3-21.4-4.8-28.7-13c-8.4-9.4-6.5-16.4-5.3-21.8c3.5-16.2,27.5-22.5,34-21.1c5.5,1.1,9.1-0.2,15.3,4.8
	C67.2,16.3,77.3,21.3,76.7,32.1z"/>
<path stroke="#000000" stroke-miterlimit="10" d="M58.5,50.6l-32.6-2.9c-1.1,0-2-0.9-2-2L21,43.5c-1.4-1.2-0.5-4.4,2.9-3.1l35.9,1
	c1.1,0,2.1-0.7,2.1,0.4l2,2.1C63.8,45,67.1,49.5,58.5,50.6z"/>
<path fill="none" stroke="#000000" stroke-width="2" stroke-miterlimit="10" d="M80.7,32.9c-1.9,31.6-5.5,27.9-39.1,31.5
	C27.7,65.8,17,58.9,8.5,49.7C-1.1,39.2,1,31.2,2.4,25.2C6.4,7,34.1-0.1,41.6,1.4c6.4,1.3,10.5-0.2,17.7,5.4
	C69.7,15.1,81.4,20.8,80.7,32.9z"/>
</svg>
