<?xml version="1.0" encoding="utf-8"?>
<!-- Generator: Adobe Illustrator 18.1.0, SVG Export Plug-In . SVG Version: 6.00 Build 0)  -->
<svg version="1.1" id="Layer_1" xmlns="http://www.w3.org/2000/svg" xmlns:xlink="http://www.w3.org/1999/xlink" x="0px" y="0px"
	 viewBox="0 0 81.9 65.8" enable-background="new 0 0 81.9 65.8" xml:space="preserve">
<path fill="#F15A29" stroke="#000000" stroke-width="2" stroke-miterlimit="10" d="M58.1,8.9c-6.2-5-9.8-3.7-15.3-4.8
	c-6.5-1.4-30.5,5-34,21.1C7.5,30.6,5.6,37.7,14,47.1c7.3,8.2,16.7,14.3,28.7,13c29.1-3.2,32.3,0.1,34-28
	C77.3,21.3,67.2,16.3,58.1,8.9z"/>
<path fill="none" stroke="#000000" stroke-width="2" stroke-miterlimit="10" d="M80.7,32.9c-1.9,31.6-5.5,27.9-39.1,31.5
	C27.7,65.8,17,58.9,8.5,49.7C-1.1,39.2,1,31.2,2.4,25.2C6.4,7,34.1-0.1,41.6,1.4c6.4,1.3,10.5-0.2,17.7,5.4
	C69.7,15.1,81.4,20.8,80.7,32.9z"/>
</svg>
