<?xml version="1.0" encoding="utf-8"?>
<!-- Generator: Adobe Illustrator 18.1.0, SVG Export Plug-In . SVG Version: 6.00 Build 0)  -->
<svg version="1.1" id="Layer_1" xmlns="http://www.w3.org/2000/svg" xmlns:xlink="http://www.w3.org/1999/xlink" x="0px" y="0px"
	 viewBox="0 0 167.9 146.8" enable-background="new 0 0 167.9 146.8" xml:space="preserve">
<path fill="#F15A29" stroke="#000000" stroke-width="3" stroke-miterlimit="10" d="M138.4,27.7c2.4-1-7.2,0.1-24.5,1.2
	c-2,0.1-4,0.3-6,0.4c0,0,0,0,0.1,0c-6.5,0.8-12.4,1.5-18.4,2.1c-12.2,1.3-24.4,2.1-36.5,3.9c-4.2,0.6-8.3,3.1-12.1,5.3
	C32.4,46,23.9,51.5,15.5,57.1c-3,2-3.1,4.7-1.9,8c1.3,3.5,2,7.1,2.5,10.8c0.9,6.9,14.8,18.5,21.4,16.7c4.2-1.2,9.8-1.4,11.3-6.9
	c2,0.1,4,0.6,5.9,0.2c27.1-5.6,54.5-8.8,82.3-6.8c6.4,0.5,12.9-0.3,18.9-0.5c-1.7,2.6-4.7,3.7-9.8,3.9c-9.6,0.3-19.2,0.9-28.8,1.4
	c-1.2,0.1-2.4,0.1-3.5-0.2c-4.7-1.3-8.3-0.4-10.7,4.5c-2.3,4.7-7,2.8-11,2.8c3.3-1.1,6.6-2.3,9.9-3.4c-0.2-0.9-0.1-0.6-0.3-1.4
	c-3.1,0.4-6.1,0.7-9.2,1.1c0-0.2-0.1-0.4-0.1-0.6c3.8-0.9,7.7-1.8,11.5-2.7c-0.1-0.7-0.2-1.3-0.2-2c-2-0.1-4-0.3-5.9-0.1
	c-3.8,0.4-7.6,0.8-11.4,1.6c-2.4,0.5-4.6,1.9-6.8,2.9c2.2,2.2,4.2,5.1,6.8,6.4c2.5,1.1,5.8,0.4,8.7,1c-2.8,0.5-5.6,1-8.5,1.5
	c0.1,0.6,0.1,1.2,0.2,1.7c2.2-0.3,4.5-0.3,6.7-0.8c11.2-2.5,12.9,0.8,18.1,8.4c4,5.7,6.1,12.8,9.2,19.2c1.5,3.2,1.6,6.2,0.2,9.4
	c0,0,0.3,0.2,0.3,0.2c0.7-2.7,2.4-5.7,1.8-8.1c-1.5-5.6-3.7-11.1-6.5-16.1c-2.6-4.7-6.5-8.6-9.7-13c-1.3-1.8-3.5-4.4-3-5.7
	c1.3-3.2,3.8-5.5,8-5.5c12.7,0.1,25.4,0.2,38.1-0.4c4.9-0.2,8.9-3.2,10-8.9c0.5-2.9,1.9-5.7,2.8-8.5c3-9.4,3.1-19.1,1.4-28.6
	c-0.5-2.9-3.6-7.5-5.7-7.6c-6.9-0.3-5.8-1.9-11.2-3.8c-0.6-0.2-1.8,0.3-2.5,0.5c-1.3,0.5-3.1,0.1-6.8-0.5 M53.4,65.9
	c-0.9-0.2-2.1,1.6-3.3,1.8c-4.3,0.7-8.7,2.1-12.8,1.5c-4.4-0.6-6.1-6.7-2.8-9.6c2.9-2.6,6.5-4.3,8.2-5.3c7.5-0.8,14,3.3,14.2,7.6
	C57,64,57.5,66.9,53.4,65.9z M88.4,69.3c-4.5-1.6-9.1-3.3-13.9-5c1.4-5,2.5-9.7,7.5-11.5c-0.9,3.6-3.4,7.8-2.2,10.3
	c1.2,2.5,6,3.3,9.3,4.8C88.8,68.3,88.6,68.8,88.4,69.3z M135.9,59c-5.5,1.3-11.3,2.3-14.7-4.3c-0.4-0.7-1.9-0.9-2.9-1.3
	c0.1-6.2,2.5-9.5,8.1-11.3c5.9-1.8,11.4,0,14.7,5c1.5,2.3,2.6,4.9,3.9,7.4C142,56,139.1,58.3,135.9,59z"/>
<path fill="#F15A29" stroke="#000000" stroke-width="2" stroke-miterlimit="10" d="M121.3,133c-1,1.5-1.6,3.6-3,4.3
	c-9,4.5-18.3,8.3-28.6,7c-7.4-0.9-14.8-2.1-22.2-3.3c-5.5-0.9-7.7-2.9-6.7-8.5c1.7-10,3.8-19.9,6.7-29.5c1-3.2,4.9-5.4,7.8-8.5
	c-1.2-4.5-3.9-6.5-8.9-5.1c-12.4,3.3-24.7,6.8-37,10.2c-1.9,0.5-3.9,0.9-5.8,1.3c-3.1,0.6-4.7-0.8-5.9-3.8
	c-1.8-4.4-4.5-8.4-6.4-12.7c-3.3-7.6-6.4-15.2-9.2-23c-0.4-1.1,0.7-3.2,1.8-4.2C14,48,26.3,42.3,38.6,36.8c0,0-0.1-0.1-0.1-0.1
	c-9.5,6-18.9,12.1-28.5,18.1c-5,3.1-6.6,7.1-3.9,12.4c4.7,9.1,7.7,18.8,14.5,27.1c3.2,3.9,5.6,4.2,9.3,3.2
	c14.6-3.9,29.1-7.8,42.8-11.5c1.7,2.4,2.9,4.1,4.1,5.7c1.9,2.3,3.2,4.8-0.2,6.6c-6.7,3.7-8.5,10.1-9.9,16.8
	c-1.1,5.3-2.5,10.5-3.2,15.8c-0.9,6.4-0.2,7.9,6.4,8.6c10.5,1.1,21.1,1.3,31.7,1.6c2,0.1,4-1.1,6-1.7c-12.4,1.3-24.4,0.4-36.4-1.9
	c-3.3-0.6-5.3-1.5-4.8-5.7c0.5-5.6,0.2-11.2,0.2-16.9c1.1-1.9,2.4-3.8,3.4-5.8c2.2-4.8,5.2-8.1,11.1-8.4c3.3-0.1,6.6,0.4,10.1-2.7
	c4.3-3.8,11.5-1.9,15.5,2.5c5.6,6.2,9.3,13.5,11.9,21.5c1.4,4.3,3.3,8-1.7,11.2c-0.8,0.5-1,1.9-1.5,3c0.3,0.2,0.6,0.4,0.8,0.6
	c1.6-1.4,3.1-2.7,4.7-4.1L121.3,133z"/>
<path fill="#F15A29" stroke="#000000" stroke-width="2" stroke-miterlimit="10" d="M137,26.1c0,0-4.8-3.3,5.7-0.8
	c10.3,2.5-1.8-1.4-9.3-1.8c-5.5-0.3-11.8-3.7-20.8-6.2c-0.9-0.2-3.5-0.2-4.5-0.1c-11.9,1.3-26-0.8-33.5,2c-9.2,3.4-8.6,3.3-16,6.5
	c-6,2.6-10.8,4.1-19.8,10.9c0.9-0.2,1.8-0.3,2.6-0.7c1.8-0.7,6.3-3.2,11.1-4.5c14.8-4,40.6-6,59.9-6.3c0.7,0,1.6,0.4,2.6,0.2
	C128.1,23.7,139.7,26.5,137,26.1z"/>
<path fill="none" d="M137,79c-27.8-2-55.1,1.2-82.3,6.8c-1.8,0.4-3.9-0.1-5.9-0.2c-1.5,5.5-7.1,5.8-11.3,6.9
	c-6.6,1.8-20.6-9.9-21.4-16.8c-0.4-3.7-1.3-7.4-2.5-10.9c-1.2-3.3-1-6,1.9-7.9c8.4-5.5,16.9-11.1,25.5-16.3
	c3.8-2.3,7.9-4.7,12.1-5.3c12.1-1.8,24.4-2.7,36.5-3.9c5-0.5,9.9-1.1,15.2-1.7c-1.5,0.1-3,0.2-4.4,0.2c-1.2,0.1-2.3,0.2-3.5,0.2
	c-3,0-5.9-0.2-8.9-0.1c-0.6,0.2-1.2,0.4-1.8,0.6c-0.8,0.7-1.8,1.1-3.2,1.1c-1,0-1.9-0.3-2.6-0.7c-0.1,0-0.2,0-0.2,0
	c-0.2,0-0.4,0-0.6,0c-0.6,0.3-1.3,0.4-2.1,0.4c-3.8,0-20.1-1.2-21.8-0.5c-5.7,2.4-8.6,2.7-14.3,5c-0.9,0.4-1.9,0.5-2.9,0.7
	c-9.5,6-18.9,12.1-28.5,18.1c-5,3.1-6.6,7.1-3.9,12.4c4.7,9.1,7.7,18.8,14.5,27.1c3.2,3.9,5.6,4.2,9.3,3.2
	c14.6-3.9,29.1-7.8,42.8-11.5c1.7,2.4,2.9,4.1,4.1,5.7c1.9,2.3,3.2,4.8-0.2,6.6c-6.6,3.6-8.4,9.8-9.8,16.4c1.1-1.8,2.3-3.6,3.2-5.5
	c2.2-4.8,5.2-8.1,11.1-8.4c3.3-0.1,6.6,0.4,10.1-2.7c4.3-3.8,11.5-1.9,15.5,2.5c5.6,6.2,9.3,13.5,11.9,21.5c1.4,4.3,3.3,8-1.7,11.2
	c-0.8,0.5-1,1.9-1.5,3c0.3,0.2,0.6,0.4,0.8,0.6c1.6-1.4,3.1-2.7,4.7-4.1c1.5-3.2,1.4-6.2-0.2-9.4c-3.1-6.4-5.2-13.4-9.2-19.2
	c-5.2-7.6-7-11-18.1-8.4c-2.2,0.5-4.5,0.6-6.7,0.8c-0.1-0.6-0.1-1.2-0.2-1.7c2.8-0.5,5.6-1,8.5-1.5c-3-0.5-6.3,0.2-8.7-1
	c-2.7-1.2-4.6-4.2-6.8-6.4c2.3-1,4.5-2.4,6.8-2.9c3.7-0.9,7.5-1.3,11.4-1.6c1.9-0.2,3.9,0.1,5.9,0.1c0.1,0.7,0.2,1.3,0.2,2
	c-3.8,0.9-7.7,1.8-11.5,2.7c0,0.2,0.1,0.4,0.1,0.6c3-0.3,6.1-0.7,9.1-1c0.1,0.5,0.3,1,0.4,1.4c-3.3,1.1-6.6,2.3-9.9,3.4
	c4-0.1,8.7,1.8,11-2.8c2.4-4.8,5.9-5.7,10.7-4.5c1.1,0.3,2.3,0.3,3.5,0.2c9.6-0.4,19.2-1,28.8-1.4c5.1-0.2,8-1.3,9.8-3.9
	C149.9,78.7,143.4,79.4,137,79z"/>
<path fill="none" d="M118,51.4c1-6.2,3.8-9.1,9.6-10c6.1-1,11.3,1.5,13.9,7c1.2,2.5,1.9,5.2,2.8,7.8c-3.2,1.1-6.4,3-9.7,3.3
	c-5.6,0.5-11.5,0.7-14-6.4C120.5,52.3,119,52,118,51.4z"/>
<path fill="none" d="M88.4,69.1c-4.5-1.6-9.1-3.3-13.9-5c1.4-5,2.5-9.7,7.5-11.5c-0.9,3.6-3.4,7.8-2.2,10.3c1.2,2.5,6,3.3,9.3,4.8
	C88.8,68.2,88.6,68.7,88.4,69.1z"/>
<path fill="none" d="M66.7,114.9c0,5.6,0.4,11.3-0.2,16.9c-0.4,4.2,1.5,5.1,4.8,5.7c12,2.2,24,3.2,36.4,1.9c-2,0.6-4,1.8-6,1.7
	c-10.6-0.3-21.2-0.5-31.7-1.6c-6.5-0.7-7.2-2.2-6.4-8.6c0.7-5.3,2.1-10.5,3.2-15.8C66.8,115,66.7,114.9,66.7,114.9z"/>
<path fill="#FFFFFF" d="M57.1,38.1c0.7-0.1,1.4,0.6,1.5,1.4c0,0.3,0.1,0.8-0.3,0.6c-0.1,0-0.2,0.2-0.3,0.3c-0.4,0.1-0.9,0.3-1.3,0.2
	c-0.4-0.1-0.7-1.1-0.4-1.6C56.6,38.6,56.9,38.3,57.1,38.1z"/>
<path fill="#FFFFFF" d="M71.2,37.1c0.8-0.1,1.5,0.2,1.5,0.6c0,0.2,0,0.4-0.4,0.3c-0.1,0-0.2,0.1-0.3,0.2c-0.4,0.1-0.9,0.2-1.3,0.2
	c-0.5,0-0.6-0.5-0.3-0.8C70.7,37.4,71.1,37.2,71.2,37.1z"/>
<path fill="#FFFFFF" d="M81.4,36c0.3,0.6,0,1.4-0.5,1.6c-0.3,0.1-0.6,0.3-0.6-0.1c0-0.1-0.2-0.1-0.3-0.2c-0.2-0.3-0.5-0.6-0.5-1
	c-0.1-0.4,0.6-0.9,1.1-0.7C80.9,35.7,81.2,35.9,81.4,36z"/>
<path fill="#FFFFFF" d="M95.5,35.2c1.2-0.2,2.2,0.1,2.2,0.7c0,0.3,0.1,0.6-0.5,0.5c-0.1,0-0.3,0.2-0.5,0.3c-0.6,0.2-1.3,0.4-2,0.4
	c-0.7,0-1-0.7-0.5-1.1C94.7,35.7,95.2,35.4,95.5,35.2z"/>
<path fill="#FFFFFF" d="M111.9,33c0.5-0.1,1,0.2,1.1,0.6c0,0.2,0.1,0.4-0.2,0.4c-0.1,0-0.1,0.1-0.2,0.2c-0.3,0.1-0.6,0.2-0.9,0.2
	c-0.3,0-0.5-0.5-0.3-0.8C111.5,33.3,111.8,33.1,111.9,33z"/>
<path fill="#FFFFFF" d="M125.5,32.2c0.5,0.1,0.9,0.6,0.8,1.1c0,0.2-0.1,0.5-0.3,0.4c-0.1,0-0.2,0.1-0.3,0.1c-0.3,0-0.6,0-0.9-0.1
	c-0.3-0.2-0.3-0.8,0-1.1C125.1,32.4,125.4,32.3,125.5,32.2z"/>
<path fill="#FFFFFF" d="M147.9,33.9c0.5-0.1,1,0.2,1.1,0.6c0,0.2,0.1,0.4-0.2,0.4c-0.1,0-0.1,0.1-0.2,0.2c-0.3,0.1-0.6,0.2-0.9,0.2
	c-0.3,0-0.5-0.5-0.3-0.8C147.6,34.1,147.8,34,147.9,33.9z"/>
<path fill="#FFFFFF" d="M55.7,79.9c0.5-0.3,1-0.2,1.2,0.2c0.1,0.2,0.2,0.4-0.1,0.4c-0.1,0-0.1,0.2-0.1,0.2c-0.3,0.2-0.5,0.4-0.8,0.5
	c-0.3,0.1-0.6-0.3-0.5-0.7C55.5,80.2,55.7,80,55.7,79.9z"/>
<path fill="#FFFFFF" d="M68.9,78.5c0.3-0.1,0.5,0.1,0.6,0.3c0,0.1,0,0.2-0.1,0.2c0,0-0.1,0.1-0.1,0.1c-0.2,0-0.3,0.1-0.5,0.1
	c-0.2,0-0.3-0.3-0.2-0.5C68.7,78.6,68.9,78.5,68.9,78.5z"/>
<path fill="#FFFFFF" d="M85.2,76.6c0.5-0.1,1,0.2,1.1,0.6c0,0.2,0.1,0.4-0.2,0.4c-0.1,0-0.1,0.1-0.2,0.2c-0.3,0.1-0.6,0.2-0.9,0.2
	c-0.3,0-0.5-0.5-0.3-0.8C84.8,76.9,85,76.7,85.2,76.6z"/>
<path fill="#FFFFFF" d="M157.3,34.7c0.5-0.1,1,0.2,1.1,0.6c0,0.2,0.1,0.4-0.2,0.4c-0.1,0-0.1,0.1-0.2,0.2c-0.3,0.1-0.6,0.2-0.9,0.2
	c-0.3,0-0.5-0.5-0.3-0.8C157,34.9,157.2,34.8,157.3,34.7z"/>
<path fill="#FFFFFF" d="M160.1,43.8c0.3-0.1,0.5,0,0.5,0.2c0,0.1,0,0.1-0.1,0.1c0,0-0.1,0.1-0.1,0.1c-0.1,0-0.3,0.1-0.5,0.1
	c-0.2,0-0.2-0.2-0.1-0.3C159.9,43.9,160.1,43.8,160.1,43.8z"/>
<path fill="#FFFFFF" d="M160.4,49.2c0.1,0.2,0.1,0.5,0,0.6c-0.1,0-0.2,0.1-0.2,0c0,0-0.1,0-0.1-0.1c-0.1-0.1-0.2-0.2-0.3-0.4
	c-0.1-0.1,0.1-0.3,0.3-0.3C160.2,49.1,160.3,49.2,160.4,49.2z"/>
<path fill="#FFFFFF" d="M158.9,56.8c0.1-0.8,0.5-1.4,0.8-1.3c0.1,0,0.3,0.1,0.1,0.5c0,0.1,0,0.3,0,0.4c-0.1,0.5-0.1,0.9-0.2,1.4
	c-0.1,0.4-0.5,0.5-0.6,0.1C159,57.4,159,57,158.9,56.8z"/>
<path fill="#FFFFFF" d="M167.6,61.8c0.5-0.1,1,0.2,1.1,0.6c0,0.2,0.1,0.4-0.2,0.4c-0.1,0-0.1,0.2-0.2,0.2c-0.3,0.1-0.6,0.2-0.9,0.2
	c-0.3,0-0.5-0.6-0.3-0.8C167.3,62,167.5,61.9,167.6,61.8z"/>
<path fill="#FFFFFF" d="M98.5,74.3c0.4-0.2,0.8-0.1,0.8,0.1c0,0.1,0.1,0.2-0.1,0.2c0,0-0.1,0.1-0.1,0.1c-0.2,0.1-0.4,0.2-0.6,0.3
	c-0.2,0-0.4-0.2-0.3-0.4C98.2,74.5,98.4,74.3,98.5,74.3z"/>
<path fill="#FFFFFF" d="M124.2,74.4c0.5-0.2,1.1,0,1.2,0.4c0.1,0.2,0.2,0.4-0.1,0.4c-0.1,0-0.1,0.2-0.2,0.2
	c-0.3,0.1-0.6,0.3-0.9,0.4c-0.3,0-0.6-0.4-0.4-0.7C123.9,74.7,124.2,74.5,124.2,74.4z"/>
<path fill="#FFFFFF" d="M135.4,75.3c0.7-0.3,1.2-0.8,1.1-1c-0.1-0.1-0.1-0.3-0.5,0c-0.1,0-0.2,0-0.4,0.1c-0.4,0.2-0.9,0.3-1.2,0.5
	c-0.4,0.2-0.3,0.6,0.1,0.6C134.8,75.4,135.2,75.3,135.4,75.3z"/>
<path fill="#FFFFFF" d="M112.1,74.9c0.4,0,0.7,0.2,0.6,0.3c0,0.1,0,0.2-0.2,0.1c0,0-0.1,0.1-0.2,0.1c-0.2,0-0.4,0.1-0.6,0
	c-0.2,0-0.3-0.3-0.1-0.4C111.9,75,112,74.9,112.1,74.9z"/>
<path fill="#FFFFFF" d="M145.7,75.9c0.2-0.3-0.1-0.7-0.4-0.9c-0.2-0.1-0.4-0.2-0.4,0c0,0-0.2,0-0.2,0.1c-0.1,0.2-0.3,0.3-0.3,0.5
	c0,0.2,0.5,0.5,0.7,0.5C145.4,76,145.6,75.9,145.7,75.9z"/>
<path fill="#FFFFFF" d="M155.6,75.7c0.4-0.2,0.5-1,0.2-1.6c-0.1-0.3-0.3-0.7-0.4-0.4c0,0.1-0.2-0.1-0.3-0.1
	c-0.3,0.1-0.6,0.1-0.7,0.3c-0.2,0.3,0.1,1.2,0.5,1.5C155.1,75.5,155.4,75.6,155.6,75.7z"/>
<path fill="#FFFFFF" d="M158.9,67.3c0.4-0.2,0.5-1,0.3-1.6c-0.1-0.3-0.3-0.7-0.4-0.4c0,0.1-0.2-0.1-0.3-0.1
	c-0.3,0.1-0.6,0.1-0.8,0.3c-0.2,0.2,0.1,1.1,0.4,1.4C158.4,67.1,158.7,67.2,158.9,67.3z"/>
<path fill="none" stroke="#000000" stroke-width="3" stroke-miterlimit="10" d="M109.8,16.8"/>
<path fill="none" stroke="#000000" stroke-width="3" stroke-miterlimit="10" d="M71.1,22.9"/>
<path fill="none" stroke="#000000" stroke-width="3" stroke-miterlimit="10" d="M137,24.8"/>
<path fill="none" stroke="#000000" stroke-width="3" stroke-miterlimit="10" d="M108.1,16.8"/>
<path fill="none" stroke="#000000" stroke-width="3" stroke-miterlimit="10" d="M72.2,22.5"/>
<path fill="none" stroke="#000000" stroke-width="2" stroke-miterlimit="10" d="M74.4,20.9"/>
<path fill="none" stroke="#000000" stroke-width="2" stroke-miterlimit="10" d="M72.5,23.8"/>
<path fill="none" stroke="#000000" stroke-width="3" stroke-miterlimit="10" d="M97.2,24.8"/>
<path fill="none" stroke="#000000" stroke-width="3" stroke-miterlimit="10" d="M55.1,30.3"/>
</svg>
