<?xml version="1.0" encoding="utf-8"?>
<!-- Generator: Adobe Illustrator 18.1.0, SVG Export Plug-In . SVG Version: 6.00 Build 0)  -->
<svg version="1.1" id="Layer_1" xmlns="http://www.w3.org/2000/svg" xmlns:xlink="http://www.w3.org/1999/xlink" x="0px" y="0px"
	 viewBox="0 0 612 792" enable-background="new 0 0 612 792" xml:space="preserve">
<g>
	<path fill="#F15B2B" d="M447.6,569.5H143.9c-11.2,0-20.4-9.2-20.4-20.4V201.7l99.9-94.1h224.3c11.2,0,20.4,9.2,20.4,20.4V549
		C468,560.3,458.8,569.5,447.6,569.5z"/>
	<g>
		<path d="M447.6,564.5c-39.7,0-79.4,0-119.1,0c-55.6,0-111.2,0-166.8,0c-5.5,0-10.9,0-16.4,0c-9.4-0.1-16.6-6.3-16.8-16
			c-0.4-12.9,0-26,0-38.9c0-58.9,0-117.9,0-176.8c0-43,0-86,0-129c0-0.7,0-1.4,0-2.1c-0.5,1.2-1,2.4-1.5,3.5
			c29.2-27.5,58.4-55.1,87.6-82.6c4.1-3.8,8.1-7.7,12.2-11.5c-1.2,0.5-2.4,1-3.5,1.5c46.8,0,93.5,0,140.3,0c24.8,0,49.6,0,74.4,0
			c6.1,0,13.2-0.9,18.5,2.8c6,4.3,6.6,10.5,6.6,17c0,42,0,84,0,126c0,63,0,126.1,0,189.1c0,23.7,0,47.4,0,71.1
			c0,10.1,0.4,20.3,0,30.3C462.7,557.6,456.3,564.2,447.6,564.5c-6.4,0.2-6.4,10.2,0,10c15.3-0.5,25.4-12.5,25.4-27.4
			c0-5.5,0-11.1,0-16.6c0-24.1,0-48.2,0-72.3c0-34.4,0-68.8,0-103.2c0-35.6,0-71.2,0-106.7c0-28.2,0-56.5,0-84.7
			c0-11.8,0.3-23.7,0-35.5c-0.4-15.8-13.1-25.5-28.1-25.5c-8.9,0-17.9,0-26.8,0c-33.5,0-67.1,0-100.6,0c-28.4,0-56.7,0-85.1,0
			c-4.6,0-9.9-1-13.5,2.2c-8,7.1-15.6,14.7-23.4,22c-23.3,21.9-46.5,43.8-69.8,65.8c-3.5,3.3-7.3,5.7-7.4,10.8
			c-0.1,6.2,0,12.3,0,18.5c0,27,0,54.1,0,81.1c0,35.7,0,71.4,0,107.1c0,31.7,0,63.4,0,95.1c0,14.5-0.4,29.1,0,43.7
			c0.4,15,12.2,25.5,26.9,25.6c6.6,0,13.1,0,19.7,0c28.8,0,57.6,0,86.3,0c35.8,0,71.7,0,107.5,0c25.8,0,51.5,0,77.3,0
			c3.8,0,7.6,0,11.4,0C454,574.5,454.1,564.5,447.6,564.5z"/>
	</g>
</g>
<g>
	<path fill="#FFFFFF" d="M412.8,530.6h-234c-10,0-18.2-8.2-18.2-18.2V203.7l65.5,0l0-57.3h17.7h169.1c10,0,18.2,8.2,18.2,18.2v347.7
		C431,522.4,422.8,530.6,412.8,530.6z"/>
	<g>
		<path d="M412.8,525.6c-34.7,0-69.3,0-104,0c-42.1,0-84.2,0-126.3,0c-7.3,0-14.9-2.1-16.6-10.6c-0.6-2.8-0.3-6-0.3-8.8
			c0-15,0-30.1,0-45.1c0-50.7,0-101.5,0-152.2c0-22.6,0-45.1,0-67.7c0-11.9,0.8-24,0-35.8c0-0.6,0-1.1,0-1.7c-1.7,1.7-3.3,3.3-5,5
			c21.8,0,43.6,0,65.5,0c2.7,0,5-2.3,5-5c0-19.1,0-38.2,0-57.3c-1.7,1.7-3.3,3.3-5,5c37.1,0,74.1,0,111.2,0c22.1,0,44.2,0,66.3,0
			c4.7,0,10.6-0.8,14.9,1.3c6.2,3,7.5,8.9,7.5,15c0,34.5,0,69,0,103.4c0,52.4,0,104.8,0,157.2c0,19.7,0,39.4,0,59.1
			c0,8.3,0.4,16.6,0,24.9C425.7,519.7,420.2,525.3,412.8,525.6c-6.4,0.2-6.4,10.2,0,10c13.3-0.5,23.1-10.7,23.2-24
			c0-3.5,0-6.9,0-10.4c0-16.8,0-33.7,0-50.5c0-52.7,0-105.5,0-158.2c0-40,0-80,0-119.9c0-2.6,0.1-5.2,0-7.9
			c-0.4-13.3-10.7-23-23.9-23.3c-16.9-0.4-33.9,0-50.8,0c-40,0-79.9,0-119.9,0c-5.1,0-10.3,0-15.4,0c-2.7,0-5,2.3-5,5
			c0,19.1,0,38.2,0,57.3c1.7-1.7,3.3-3.3,5-5c-21.8,0-43.6,0-65.5,0c-2.7,0-5,2.3-5,5c0,29.8,0,59.6,0,89.3c0,52.1,0,104.1,0,156.2
			c0,17.4,0,34.8,0,52.2c0,3.5-0.1,7,0,10.5c0.3,13.1,10,23.3,23.3,23.8c11.2,0.3,22.5,0,33.8,0c24.6,0,49.1,0,73.7,0
			c41.4,0,82.9,0,124.3,0c0.7,0,1.5,0,2.2,0C419.2,535.6,419.2,525.6,412.8,525.6z"/>
	</g>
</g>
<path fill="none" d="M316.5,375.8c-7-2.5-14.1-5.2-21.6-7.9c2.2-7.9,3.9-15.2,11.7-18.1c-1.4,5.7-5.3,12.3-3.4,16.2
	c1.9,3.9,9.3,5.2,14.5,7.5C317.1,374.4,316.8,375.2,316.5,375.8z"/>
<path fill="#FFFFFF" d="M267.9,327.1c1.1-0.2,2.2,0.9,2.3,2.2c0,0.5,0.2,1.3-0.5,0.9c-0.2,0-0.3,0.3-0.5,0.5c-0.6,0.2-1.4,0.5-2,0.3
	s-1.1-1.7-0.6-2.5C267.1,327.9,267.5,327.4,267.9,327.1z"/>
<path fill="#FFFFFF" d="M289.8,325.5c1.2-0.2,2.3,0.3,2.3,0.9c0,0.3,0,0.6-0.6,0.5c-0.2,0-0.3,0.2-0.5,0.3c-0.6,0.2-1.4,0.3-2,0.3
	c-0.8,0-0.9-0.8-0.5-1.3C289,326,289.6,325.7,289.8,325.5z"/>
<path fill="none" stroke="#010101" stroke-width="2" stroke-miterlimit="10" d="M349.8,293.6"/>
<path fill="none" stroke="#010101" stroke-width="2" stroke-miterlimit="10" d="M289.6,303.2"/>
<path fill="none" stroke="#010101" stroke-width="2" stroke-miterlimit="10" d="M347.1,293.6"/>
<path fill="none" stroke="#010101" stroke-width="2" stroke-miterlimit="10" d="M291.3,302.6"/>
<path fill="none" stroke="#010101" stroke-width="2" stroke-miterlimit="10" d="M294.7,300.1"/>
<path fill="none" stroke="#010101" stroke-width="2" stroke-miterlimit="10" d="M291.8,304.6"/>
<path fill="none" stroke="#010101" stroke-width="2" stroke-miterlimit="10" d="M330.2,306.2"/>
<path fill="none" stroke="#010101" stroke-width="2" stroke-miterlimit="10" d="M264.7,314.8"/>
<path fill="#F15C2C" stroke="#010101" stroke-width="2" stroke-miterlimit="10" d="M365.8,353.7"/>
<g>
	<g>
		<path d="M218.3,107.5c0.9,15.5,1.8,31,2.7,46.5c0.4,6.4,10.4,6.4,10,0c-0.9-15.5-1.8-31-2.7-46.5C228,101.1,218,101.1,218.3,107.5
			L218.3,107.5z"/>
	</g>
</g>
<g>
	<g>
		<path d="M123.5,206.7c15.8,0.7,31.7,1.3,47.5,2c6.4,0.3,6.4-9.7,0-10c-15.8-0.7-31.7-1.3-47.5-2
			C117,196.4,117.1,206.4,123.5,206.7L123.5,206.7z"/>
	</g>
</g>
<path fill="#F15B2B" stroke="#010101" stroke-width="2" stroke-miterlimit="10" d="M378.4,189.1c3.1-1.3-9.3,0.1-31.7,1.6
	c-2.6,0.1-5.2,0.4-7.8,0.5c0,0,0,0,0.1,0c-8.4,1-16,2-23.8,2.7c-15.8,1.7-31.6,2.7-47.2,5.1c-5.4,0.8-10.7,4.1-15.6,6.9
	c-11.1,7.1-22.1,14.3-33,21.6c-3.9,2.6-4,6.1-2.5,10.5c1.7,4.6,2.6,9.3,3.2,14.1c1.2,9,19.1,24.2,27.7,21.8c5.4-1.6,12.7-1.8,14.6-9
	c2.6,0.1,5.2,0.8,7.6,0.3c35-7.3,70.5-11.5,106.4-8.9c8.3,0.7,16.7-0.4,24.4-0.7c-2.2,3.4-6.1,4.8-12.7,5.1
	c-12.4,0.4-24.8,1.2-37.2,1.8c-1.6,0.1-3.1,0.1-4.5-0.3c-6.1-1.7-10.7-0.5-13.8,5.9c-3,6.1-9.1,3.7-14.2,3.7c4.3-1.4,8.5-3,12.8-4.4
	c-0.3-1.2-0.1-0.8-0.4-1.8c-4,0.5-7.9,0.9-11.9,1.4c0-0.3-0.1-0.5-0.1-0.8c4.9-1.2,10-2.4,14.9-3.5c-0.1-0.9-0.3-1.7-0.3-2.6
	c-2.6-0.1-5.2-0.4-7.6-0.1c-4.9,0.5-9.8,1-14.7,2.1c-3.1,0.7-5.9,2.5-8.8,3.8c2.8,2.9,5.4,6.7,8.8,8.4c3.2,1.4,7.5,0.5,11.3,1.3
	c-3.6,0.7-7.2,1.3-11,2c0.1,0.8,0.1,1.6,0.3,2.2c2.8-0.4,5.8-0.4,8.7-1c14.5-3.3,16.7,1,23.4,11c5.2,7.5,7.9,16.7,11.9,25.1
	c1.9,4.2,2.1,8.1,0.3,12.3l0.4,0.3c0.9-3.5,3.1-7.5,2.3-10.6c-1.9-7.3-4.8-14.5-8.4-21.1c-3.4-6.1-8.4-11.2-12.5-17
	c-1.7-2.4-4.5-5.8-3.9-7.5c1.7-4.2,4.9-7.2,10.3-7.2c16.4,0.1,32.8,0.3,49.3-0.5c6.3-0.3,11.5-4.2,12.9-11.6
	c0.6-3.8,2.5-7.5,3.6-11.1c3.9-12.3,4-25,1.8-37.4c-0.6-3.8-4.7-9.8-7.4-9.9c-8.9-0.4-7.5-2.5-14.5-5c-0.8-0.3-2.3,0.4-3.2,0.7
	c-1.7,0.7-4,0.1-8.8-0.7 M268.5,239c-1.2-0.3-2.7,2.1-4.3,2.4c-5.6,0.9-11.3,2.7-16.6,2c-5.7-0.8-7.9-8.8-3.6-12.6
	c3.8-3.4,8.4-5.6,10.6-6.9c9.7-1,18.1,4.3,18.4,9.9C273.2,236.5,273.8,240.3,268.5,239z M313.8,243.5c-5.8-2.1-11.8-4.3-18-6.5
	c1.8-6.5,3.2-12.7,9.7-15c-1.2,4.7-4.4,10.2-2.8,13.5s7.8,4.3,12,6.3C314.3,242.2,314,242.8,313.8,243.5z M375.2,230
	c-7.1,1.7-14.6,3-19-5.6c-0.5-0.9-2.5-1.2-3.8-1.7c0.1-8.1,3.2-12.4,10.5-14.8c7.6-2.4,14.7,0,19,6.5c1.9,3,3.4,6.4,5,9.7
	C383.1,226.1,379.3,229.1,375.2,230z"/>
<path fill="#F15B2B" stroke="#010101" stroke-width="2" stroke-miterlimit="10" d="M356.3,326.8c-1.3,2-2.1,4.7-3.9,5.6
	c-11.6,5.9-23.7,10.9-37,9.2c-9.6-1.2-19.1-2.7-28.7-4.3c-7.1-1.2-10-3.8-8.7-11.1c2.2-13.1,4.9-26,8.7-38.6
	c1.3-4.2,6.3-7.1,10.1-11.1c-1.6-5.9-5-8.5-11.5-6.7c-16,4.3-31.9,8.9-47.8,13.3c-2.5,0.7-5,1.2-7.5,1.7c-4,0.8-6.1-1-7.6-5
	c-2.3-5.8-5.8-11-8.3-16.6c-4.3-9.9-8.3-19.9-11.9-30.1c-0.5-1.4,0.9-4.2,2.3-5.5c13.1-12,29-19.5,44.9-26.7l-0.1-0.1
	c-12.3,7.8-24.4,15.8-36.9,23.7c-6.5,4.1-8.5,9.3-5,16.2c6.1,11.9,10,24.6,18.8,35.4c4.1,5.1,7.2,5.5,12,4.2
	c18.9-5.1,37.6-10.2,55.3-15c2.2,3.1,3.8,5.4,5.3,7.5c2.5,3,4.1,6.3-0.3,8.6c-8.7,4.8-11,13.2-12.8,22c-1.4,6.9-3.2,13.7-4.1,20.7
	c-1.2,8.4-0.3,10.3,8.3,11.2c13.6,1.4,27.3,1.7,41,2.1c2.6,0.1,5.2-1.4,7.8-2.2c-16,1.7-31.6,0.5-47.1-2.5c-4.3-0.8-6.9-2-6.2-7.5
	c0.6-7.3,0.3-14.6,0.3-22.1c1.4-2.5,3.1-5,4.4-7.6c2.8-6.3,6.7-10.6,14.4-11c4.3-0.1,8.5,0.5,13.1-3.5c5.6-5,14.9-2.5,20,3.3
	c7.2,8.1,12,17.7,15.4,28.1c1.8,5.6,4.3,10.5-2.2,14.6c-1,0.7-1.3,2.5-1.9,3.9c0.4,0.3,0.8,0.5,1,0.8c2.1-1.8,4-3.5,6.1-5.4
	L356.3,326.8z"/>
<path fill="#F15B2B" stroke="#010101" stroke-width="2" stroke-miterlimit="10" d="M376.6,187c0,0-6.2-4.3,7.4-1
	c13.3,3.3-2.3-1.8-12-2.4c-7.1-0.4-15.3-4.8-26.9-8.1c-1.2-0.3-4.5-0.3-5.8-0.1c-15.4,1.7-33.6-1-43.3,2.6
	c-11.9,4.4-11.1,4.3-20.7,8.5c-7.8,3.4-14,5.4-25.6,14.3c1.2-0.3,2.3-0.4,3.4-0.9c2.3-0.9,8.1-4.2,14.4-5.9
	c19.1-5.2,52.5-7.8,77.5-8.2c0.9,0,2.1,0.5,3.4,0.3C365.1,183.8,380.1,187.5,376.6,187z"/>
<path fill="none" d="M306.5,349.8c-7-2.5-14.1-5.2-21.6-7.9c2.2-7.9,3.9-15.2,11.7-18.1c-1.4,5.7-5.3,12.3-3.4,16.2
	c1.9,3.9,9.3,5.2,14.5,7.5C307.1,348.4,306.8,349.2,306.5,349.8z"/>
<path fill="#FFFFFF" d="M257.9,301.1c1.1-0.2,2.2,0.9,2.3,2.2c0,0.5,0.2,1.3-0.5,0.9c-0.2,0-0.3,0.3-0.5,0.5c-0.6,0.2-1.4,0.5-2,0.3
	s-1.1-1.7-0.6-2.5C257.1,301.9,257.5,301.4,257.9,301.1z"/>
<path fill="#FFFFFF" d="M279.8,299.5c1.2-0.2,2.3,0.3,2.3,0.9c0,0.3,0,0.6-0.6,0.5c-0.2,0-0.3,0.2-0.5,0.3c-0.6,0.2-1.4,0.3-2,0.3
	c-0.8,0-0.9-0.8-0.5-1.3C279,300,279.6,299.7,279.8,299.5z"/>
<path fill="none" stroke="#010101" stroke-width="2" stroke-miterlimit="10" d="M339.8,267.6"/>
<path fill="none" stroke="#010101" stroke-width="2" stroke-miterlimit="10" d="M279.6,277.2"/>
<path fill="none" stroke="#010101" stroke-width="2" stroke-miterlimit="10" d="M337.1,267.6"/>
<path fill="none" stroke="#010101" stroke-width="2" stroke-miterlimit="10" d="M281.3,276.6"/>
<path fill="none" stroke="#010101" stroke-width="2" stroke-miterlimit="10" d="M284.7,274.1"/>
<path fill="none" stroke="#010101" stroke-width="2" stroke-miterlimit="10" d="M281.8,278.6"/>
<path fill="none" stroke="#010101" stroke-width="2" stroke-miterlimit="10" d="M320.2,280.2"/>
<path fill="none" stroke="#010101" stroke-width="2" stroke-miterlimit="10" d="M254.7,288.8"/>
<path fill="#F15C2C" stroke="#010101" stroke-width="2" stroke-miterlimit="10" d="M355.8,327.7"/>
<g>
	<path fill="#F15C2C" d="M391,389.5H205.1c-6.6,0-12-5.4-12-12v-3.3c0-6.6,5.4-12,12-12H391c6.6,0,12,5.4,12,12v3.3
		C403,384.1,397.6,389.5,391,389.5z"/>
	<g>
		<path d="M391,384.5c-23.9,0-47.7,0-71.6,0c-34.1,0-68.2,0-102.4,0c-3.5,0-7,0.1-10.5,0c-6.7-0.1-10.3-6.4-7.9-12.7
			c2.7-7.1,17.5-4.5,23.2-4.5c35.3,0,70.5,0,105.8,0c15.8,0,31.6,0,47.4,0c6.5,0,21.7-2.8,23,6.4C398.7,378.6,396.9,384.1,391,384.5
			c-6.4,0.3-6.4,10.3,0,10c13.6-0.7,21.2-15.7,15.2-27.7c-3.4-6.8-10.1-9.5-17.2-9.5c-11.8-0.1-23.7,0-35.5,0c-39.3,0-78.7,0-118,0
			c-10,0-20-0.3-29.9,0c-23.2,0.7-23,36.6,0.1,37.3c29.6,0.8,59.3,0,88.9,0c31.5,0,63.1,0.6,94.7,0c0.6,0,1.2,0,1.8,0
			C397.4,394.5,397.4,384.5,391,384.5z"/>
	</g>
</g>
<g>
	<path fill="#F15C2C" d="M391,430.3H205.1c-6.6,0-12-5.4-12-12V415c0-6.6,5.4-12,12-12H391c6.6,0,12,5.4,12,12v3.3
		C403,424.9,397.6,430.3,391,430.3z"/>
	<g>
		<path d="M391,425.3c-23.9,0-47.7,0-71.6,0c-34.1,0-68.2,0-102.4,0c-3.5,0-7,0.1-10.5,0c-6.7-0.1-10.3-6.4-7.9-12.7
			c2.7-7.1,17.5-4.5,23.2-4.5c35.3,0,70.5,0,105.8,0c15.8,0,31.6,0,47.4,0c6.5,0,21.7-2.8,23,6.4C398.7,419.4,396.9,425,391,425.3
			c-6.4,0.3-6.4,10.3,0,10c13.6-0.7,21.2-15.7,15.2-27.7c-3.4-6.8-10.1-9.5-17.2-9.5c-11.8-0.1-23.7,0-35.5,0c-39.3,0-78.7,0-118,0
			c-10,0-20-0.3-29.9,0c-23.2,0.7-23,36.6,0.1,37.3c29.6,0.8,59.3,0,88.9,0c31.5,0,63.1,0.6,94.7,0c0.6,0,1.2,0,1.8,0
			C397.4,435.3,397.4,425.3,391,425.3z"/>
	</g>
</g>
<g>
	<polygon fill="#F15C2C" points="298.1,510.5 202.1,452 389.1,452 	"/>
	<g>
		<path d="M300.6,506.1c-28.1-17.1-56.1-34.2-84.2-51.3c-3.9-2.4-7.9-4.8-11.8-7.2c-0.8,3.1-1.7,6.2-2.5,9.3c21,0,42,0,63.1,0
			c33.6,0,67.1,0,100.7,0c7.8,0,15.5,0,23.3,0c-0.8-3.1-1.7-6.2-2.5-9.3c-26.6,17.1-53.1,34.1-79.7,51.2c-3.8,2.4-7.6,4.9-11.4,7.3
			c-5.4,3.5-0.4,12.1,5,8.6c26.6-17.1,53.1-34.1,79.7-51.2c3.8-2.4,7.6-4.9,11.4-7.3c4.1-2.6,2.6-9.3-2.5-9.3c-21,0-42,0-63.1,0
			c-33.6,0-67.1,0-100.7,0c-7.8,0-15.5,0-23.3,0c-5,0-6.7,6.8-2.5,9.3c28.1,17.1,56.1,34.2,84.2,51.3c3.9,2.4,7.9,4.8,11.8,7.2
			C301.1,518.1,306.1,509.5,300.6,506.1z"/>
	</g>
</g>
</svg>
