<?xml version="1.0" encoding="utf-8"?>
<!-- Generator: Adobe Illustrator 18.1.0, SVG Export Plug-In . SVG Version: 6.00 Build 0)  -->
<svg version="1.1" id="Layer_1" xmlns="http://www.w3.org/2000/svg" xmlns:xlink="http://www.w3.org/1999/xlink" x="0px" y="0px"
	 viewBox="0 0 359 476.5" enable-background="new 0 0 359 476.5" xml:space="preserve">
<g>
	<path fill="#F15B2B" d="M331.6,469H27.9c-11.2,0-20.4-9.2-20.4-20.4V101.2L107.3,7h224.3c11.2,0,20.4,9.2,20.4,20.4v421.1
		C352,459.8,342.8,469,331.6,469z"/>
	<g>
		<path d="M331.6,464c-39.7,0-79.4,0-119.1,0c-55.6,0-111.2,0-166.8,0c-5.5,0-10.9,0-16.4,0c-9.4-0.1-16.6-6.3-16.8-16
			c-0.4-12.9,0-26,0-38.9c0-58.9,0-117.9,0-176.8c0-43,0-86,0-129c0-0.7,0-1.4,0-2.1c-0.5,1.2-1,2.4-1.5,3.5
			c29.2-27.5,58.4-55.1,87.6-82.6c4.1-3.8,8.1-7.7,12.2-11.5c-1.2,0.5-2.4,1-3.5,1.5c46.8,0,93.5,0,140.3,0c24.8,0,49.6,0,74.4,0
			c6.1,0,13.2-0.9,18.5,2.8c6,4.3,6.6,10.5,6.6,17c0,42,0,84,0,126c0,63,0,126.1,0,189.1c0,23.7,0,47.4,0,71.1
			c0,10.1,0.4,20.3,0,30.3C346.7,457.1,340.3,463.7,331.6,464c-6.4,0.2-6.4,10.2,0,10c15.3-0.5,25.4-12.5,25.4-27.4
			c0-5.5,0-11.1,0-16.6c0-24.1,0-48.2,0-72.3c0-34.4,0-68.8,0-103.2c0-35.6,0-71.2,0-106.7c0-28.2,0-56.5,0-84.7
			c0-11.8,0.3-23.7,0-35.5C356.6,11.7,344,2,329,2c-8.9,0-17.9,0-26.8,0c-33.5,0-67.1,0-100.6,0c-28.4,0-56.7,0-85.1,0
			c-4.6,0-9.9-1-13.5,2.2c-8,7.1-15.6,14.7-23.4,22C56.4,48.2,33.1,70.1,9.9,92.1c-3.5,3.3-7.3,5.7-7.4,10.8c-0.1,6.2,0,12.3,0,18.5
			c0,27,0,54.1,0,81.1c0,35.7,0,71.4,0,107.1c0,31.7,0,63.4,0,95.1c0,14.5-0.4,29.1,0,43.7c0.4,15,12.2,25.5,26.9,25.6
			c6.6,0,13.1,0,19.7,0c28.8,0,57.6,0,86.3,0c35.8,0,71.7,0,107.5,0c25.8,0,51.5,0,77.3,0c3.8,0,7.6,0,11.4,0
			C338,474,338.1,464,331.6,464z"/>
	</g>
</g>
<g>
	<path fill="#FFFFFF" d="M296.8,430.1h-234c-10,0-18.2-8.2-18.2-18.2V103.2l65.5,0l0-57.3h17.7h169.1c10,0,18.2,8.2,18.2,18.2v347.7
		C315,421.9,306.8,430.1,296.8,430.1z"/>
	<g>
		<path d="M296.8,425.1c-34.7,0-69.3,0-104,0c-42.1,0-84.2,0-126.3,0c-7.3,0-14.9-2.1-16.6-10.6c-0.6-2.8-0.3-6-0.3-8.8
			c0-15,0-30.1,0-45.1c0-50.7,0-101.5,0-152.2c0-22.6,0-45.1,0-67.7c0-11.9,0.8-24,0-35.8c0-0.6,0-1.1,0-1.7c-1.7,1.7-3.3,3.3-5,5
			c21.8,0,43.6,0,65.5,0c2.7,0,5-2.3,5-5c0-19.1,0-38.2,0-57.3c-1.7,1.7-3.3,3.3-5,5c37.1,0,74.1,0,111.2,0c22.1,0,44.2,0,66.3,0
			c4.7,0,10.6-0.8,14.9,1.3c6.2,3,7.5,8.9,7.5,15c0,34.5,0,69,0,103.4c0,52.4,0,104.8,0,157.2c0,19.7,0,39.4,0,59.1
			c0,8.3,0.4,16.6,0,24.9C309.7,419.2,304.2,424.8,296.8,425.1c-6.4,0.2-6.4,10.2,0,10c13.3-0.5,23.1-10.7,23.2-24
			c0-3.5,0-6.9,0-10.4c0-16.8,0-33.7,0-50.5c0-52.7,0-105.5,0-158.2c0-40,0-80,0-119.9c0-2.6,0.1-5.2,0-7.9
			c-0.4-13.3-10.7-23-23.9-23.3c-16.9-0.4-33.9,0-50.8,0c-40,0-79.9,0-119.9,0c-5.1,0-10.3,0-15.4,0c-2.7,0-5,2.3-5,5
			c0,19.1,0,38.2,0,57.3c1.7-1.7,3.3-3.3,5-5c-21.8,0-43.6,0-65.5,0c-2.7,0-5,2.3-5,5c0,29.8,0,59.6,0,89.3c0,52.1,0,104.1,0,156.2
			c0,17.4,0,34.8,0,52.2c0,3.5-0.1,7,0,10.5c0.3,13.1,10,23.3,23.3,23.8c11.2,0.3,22.5,0,33.8,0c24.6,0,49.1,0,73.7,0
			c41.4,0,82.9,0,124.3,0c0.7,0,1.5,0,2.2,0C303.2,435.1,303.2,425.1,296.8,425.1z"/>
	</g>
</g>
<path fill="none" d="M200.5,275.3c-7-2.5-14.1-5.2-21.6-7.9c2.2-7.9,3.9-15.2,11.7-18.1c-1.4,5.7-5.3,12.3-3.4,16.2
	c1.9,3.9,9.3,5.2,14.5,7.5C201.1,273.9,200.8,274.7,200.5,275.3z"/>
<path fill="#FFFFFF" d="M151.9,226.6c1.1-0.2,2.2,0.9,2.3,2.2c0,0.5,0.2,1.3-0.5,0.9c-0.2,0-0.3,0.3-0.5,0.5c-0.6,0.2-1.4,0.5-2,0.3
	s-1.1-1.7-0.6-2.5C151.1,227.4,151.5,226.9,151.9,226.6z"/>
<path fill="#FFFFFF" d="M173.8,225c1.2-0.2,2.3,0.3,2.3,0.9c0,0.3,0,0.6-0.6,0.5c-0.2,0-0.3,0.2-0.5,0.3c-0.6,0.2-1.4,0.3-2,0.3
	c-0.8,0-0.9-0.8-0.5-1.3C173,225.5,173.6,225.2,173.8,225z"/>
<path fill="none" stroke="#010101" stroke-width="2" stroke-miterlimit="10" d="M233.8,193.1"/>
<path fill="none" stroke="#010101" stroke-width="2" stroke-miterlimit="10" d="M173.6,202.7"/>
<path fill="none" stroke="#010101" stroke-width="2" stroke-miterlimit="10" d="M231.1,193.1"/>
<path fill="none" stroke="#010101" stroke-width="2" stroke-miterlimit="10" d="M175.3,202.1"/>
<path fill="none" stroke="#010101" stroke-width="2" stroke-miterlimit="10" d="M178.7,199.6"/>
<path fill="none" stroke="#010101" stroke-width="2" stroke-miterlimit="10" d="M175.8,204.1"/>
<path fill="none" stroke="#010101" stroke-width="2" stroke-miterlimit="10" d="M214.2,205.7"/>
<path fill="none" stroke="#010101" stroke-width="2" stroke-miterlimit="10" d="M148.7,214.3"/>
<path fill="#F15C2C" stroke="#010101" stroke-width="2" stroke-miterlimit="10" d="M249.8,253.2"/>
<g>
	<g>
		<path d="M102.3,7c0.9,15.5,1.8,31,2.7,46.5c0.4,6.4,10.4,6.4,10,0c-0.9-15.5-1.8-31-2.7-46.5C112,0.6,102,0.6,102.3,7L102.3,7z"/>
	</g>
</g>
<g>
	<g>
		<path d="M7.5,106.2c15.8,0.7,31.7,1.3,47.5,2c6.4,0.3,6.4-9.7,0-10c-15.8-0.7-31.7-1.3-47.5-2C1,95.9,1.1,105.9,7.5,106.2
			L7.5,106.2z"/>
	</g>
</g>
<path fill="#F15B2B" stroke="#010101" stroke-width="2" stroke-miterlimit="10" d="M262.4,88.6c3.1-1.3-9.3,0.1-31.7,1.6
	c-2.6,0.1-5.2,0.4-7.8,0.5c0,0,0,0,0.1,0c-8.4,1-16,2-23.8,2.7c-15.8,1.7-31.6,2.7-47.2,5.1c-5.4,0.8-10.7,4.1-15.6,6.9
	c-11.1,7.1-22.1,14.3-33,21.6c-3.9,2.6-4,6.1-2.5,10.5c1.7,4.6,2.6,9.3,3.2,14.1c1.2,9,19.1,24.2,27.7,21.8c5.4-1.6,12.7-1.8,14.6-9
	c2.6,0.1,5.2,0.8,7.6,0.3c35-7.3,70.5-11.5,106.4-8.9c8.3,0.7,16.7-0.4,24.4-0.7c-2.2,3.4-6.1,4.8-12.7,5.1
	c-12.4,0.4-24.8,1.2-37.2,1.8c-1.6,0.1-3.1,0.1-4.5-0.3c-6.1-1.7-10.7-0.5-13.8,5.9c-3,6.1-9.1,3.7-14.2,3.7c4.3-1.4,8.5-3,12.8-4.4
	c-0.3-1.2-0.1-0.8-0.4-1.8c-4,0.5-7.9,0.9-11.9,1.4c0-0.3-0.1-0.5-0.1-0.8c4.9-1.2,10-2.4,14.9-3.5c-0.1-0.9-0.3-1.7-0.3-2.6
	c-2.6-0.1-5.2-0.4-7.6-0.1c-4.9,0.5-9.8,1-14.7,2.1c-3.1,0.7-5.9,2.5-8.8,3.8c2.8,2.9,5.4,6.7,8.8,8.4c3.2,1.4,7.5,0.5,11.3,1.3
	c-3.6,0.7-7.2,1.3-11,2c0.1,0.8,0.1,1.6,0.3,2.2c2.8-0.4,5.8-0.4,8.7-1c14.5-3.3,16.7,1,23.4,11c5.2,7.5,7.9,16.7,11.9,25.1
	c1.9,4.2,2.1,8.1,0.3,12.3l0.4,0.3c0.9-3.5,3.1-7.5,2.3-10.6c-1.9-7.3-4.8-14.5-8.4-21.1c-3.4-6.1-8.4-11.2-12.5-17
	c-1.7-2.4-4.5-5.8-3.9-7.5c1.7-4.2,4.9-7.2,10.3-7.2c16.4,0.1,32.8,0.3,49.3-0.5c6.3-0.3,11.5-4.2,12.9-11.6
	c0.6-3.8,2.5-7.5,3.6-11.1c3.9-12.3,4-25,1.8-37.4c-0.6-3.8-4.7-9.8-7.4-9.9c-8.9-0.4-7.5-2.5-14.5-5c-0.8-0.3-2.3,0.4-3.2,0.7
	c-1.7,0.7-4,0.1-8.8-0.7 M152.5,138.5c-1.2-0.3-2.7,2.1-4.3,2.4c-5.6,0.9-11.3,2.7-16.6,2c-5.7-0.8-7.9-8.8-3.6-12.6
	c3.8-3.4,8.4-5.6,10.6-6.9c9.7-1,18.1,4.3,18.4,9.9C157.2,136,157.8,139.8,152.5,138.5z M197.8,143c-5.8-2.1-11.8-4.3-18-6.5
	c1.8-6.5,3.2-12.7,9.7-15c-1.2,4.7-4.4,10.2-2.8,13.5s7.8,4.3,12,6.3C198.3,141.7,198,142.3,197.8,143z M259.2,129.5
	c-7.1,1.7-14.6,3-19-5.6c-0.5-0.9-2.5-1.2-3.8-1.7c0.1-8.1,3.2-12.4,10.5-14.8c7.6-2.4,14.7,0,19,6.5c1.9,3,3.4,6.4,5,9.7
	C267.1,125.6,263.3,128.6,259.2,129.5z"/>
<path fill="#F15B2B" stroke="#010101" stroke-width="2" stroke-miterlimit="10" d="M240.3,226.3c-1.3,2-2.1,4.7-3.9,5.6
	c-11.6,5.9-23.7,10.9-37,9.2c-9.6-1.2-19.1-2.7-28.7-4.3c-7.1-1.2-10-3.8-8.7-11.1c2.2-13.1,4.9-26,8.7-38.6
	c1.3-4.2,6.3-7.1,10.1-11.1c-1.6-5.9-5-8.5-11.5-6.7c-16,4.3-31.9,8.9-47.8,13.3c-2.5,0.7-5,1.2-7.5,1.7c-4,0.8-6.1-1-7.6-5
	c-2.3-5.8-5.8-11-8.3-16.6c-4.3-9.9-8.3-19.9-11.9-30.1c-0.5-1.4,0.9-4.2,2.3-5.5c13.1-12,29-19.5,44.9-26.7l-0.1-0.1
	c-12.3,7.8-24.4,15.8-36.9,23.7c-6.5,4.1-8.5,9.3-5,16.2c6.1,11.9,10,24.6,18.8,35.4c4.1,5.1,7.2,5.5,12,4.2
	c18.9-5.1,37.6-10.2,55.3-15c2.2,3.1,3.8,5.4,5.3,7.5c2.5,3,4.1,6.3-0.3,8.6c-8.7,4.8-11,13.2-12.8,22c-1.4,6.9-3.2,13.7-4.1,20.7
	c-1.2,8.4-0.3,10.3,8.3,11.2c13.6,1.4,27.3,1.7,41,2.1c2.6,0.1,5.2-1.4,7.8-2.2c-16,1.7-31.6,0.5-47.1-2.5c-4.3-0.8-6.9-2-6.2-7.5
	c0.6-7.3,0.3-14.6,0.3-22.1c1.4-2.5,3.1-5,4.4-7.6c2.8-6.3,6.7-10.6,14.4-11c4.3-0.1,8.5,0.5,13.1-3.5c5.6-5,14.9-2.5,20,3.3
	c7.2,8.1,12,17.7,15.4,28.1c1.8,5.6,4.3,10.5-2.2,14.6c-1,0.7-1.3,2.5-1.9,3.9c0.4,0.3,0.8,0.5,1,0.8c2.1-1.8,4-3.5,6.1-5.4
	L240.3,226.3z"/>
<path fill="#F15B2B" stroke="#010101" stroke-width="2" stroke-miterlimit="10" d="M260.6,86.5c0,0-6.2-4.3,7.4-1
	c13.3,3.3-2.3-1.8-12-2.4c-7.1-0.4-15.3-4.8-26.9-8.1c-1.2-0.3-4.5-0.3-5.8-0.1c-15.4,1.7-33.6-1-43.3,2.6
	c-11.9,4.4-11.1,4.3-20.7,8.5c-7.8,3.4-14,5.4-25.6,14.3c1.2-0.3,2.3-0.4,3.4-0.9c2.3-0.9,8.1-4.2,14.4-5.9
	c19.1-5.2,52.5-7.8,77.5-8.2c0.9,0,2.1,0.5,3.4,0.3C249.1,83.3,264.1,87,260.6,86.5z"/>
<path fill="none" d="M190.5,249.3c-7-2.5-14.1-5.2-21.6-7.9c2.2-7.9,3.9-15.2,11.7-18.1c-1.4,5.7-5.3,12.3-3.4,16.2
	c1.9,3.9,9.3,5.2,14.5,7.5C191.1,247.9,190.8,248.7,190.5,249.3z"/>
<path fill="#FFFFFF" d="M141.9,200.6c1.1-0.2,2.2,0.9,2.3,2.2c0,0.5,0.2,1.3-0.5,0.9c-0.2,0-0.3,0.3-0.5,0.5c-0.6,0.2-1.4,0.5-2,0.3
	s-1.1-1.7-0.6-2.5C141.1,201.4,141.5,200.9,141.9,200.6z"/>
<path fill="#FFFFFF" d="M163.8,199c1.2-0.2,2.3,0.3,2.3,0.9c0,0.3,0,0.6-0.6,0.5c-0.2,0-0.3,0.2-0.5,0.3c-0.6,0.2-1.4,0.3-2,0.3
	c-0.8,0-0.9-0.8-0.5-1.3C163,199.5,163.6,199.2,163.8,199z"/>
<path fill="none" stroke="#010101" stroke-width="2" stroke-miterlimit="10" d="M223.8,167.1"/>
<path fill="none" stroke="#010101" stroke-width="2" stroke-miterlimit="10" d="M163.6,176.7"/>
<path fill="none" stroke="#010101" stroke-width="2" stroke-miterlimit="10" d="M221.1,167.1"/>
<path fill="none" stroke="#010101" stroke-width="2" stroke-miterlimit="10" d="M165.3,176.1"/>
<path fill="none" stroke="#010101" stroke-width="2" stroke-miterlimit="10" d="M168.7,173.6"/>
<path fill="none" stroke="#010101" stroke-width="2" stroke-miterlimit="10" d="M165.8,178.1"/>
<path fill="none" stroke="#010101" stroke-width="2" stroke-miterlimit="10" d="M204.2,179.7"/>
<path fill="none" stroke="#010101" stroke-width="2" stroke-miterlimit="10" d="M138.7,188.3"/>
<path fill="#F15C2C" stroke="#010101" stroke-width="2" stroke-miterlimit="10" d="M239.8,227.2"/>
<g>
	<path fill="#F15C2C" d="M275,289H89.1c-6.6,0-12-5.4-12-12v-3.3c0-6.6,5.4-12,12-12H275c6.6,0,12,5.4,12,12v3.3
		C287,283.6,281.6,289,275,289z"/>
	<g>
		<path d="M275,284c-23.9,0-47.7,0-71.6,0c-34.1,0-68.2,0-102.4,0c-3.5,0-7,0.1-10.5,0c-6.7-0.1-10.3-6.4-7.9-12.7
			c2.7-7.1,17.5-4.5,23.2-4.5c35.3,0,70.5,0,105.8,0c15.8,0,31.6,0,47.4,0c6.5,0,21.7-2.8,23,6.4C282.7,278.1,280.9,283.6,275,284
			c-6.4,0.3-6.4,10.3,0,10c13.6-0.7,21.2-15.7,15.2-27.7c-3.4-6.8-10.1-9.5-17.2-9.5c-11.8-0.1-23.7,0-35.5,0c-39.3,0-78.7,0-118,0
			c-10,0-20-0.3-29.9,0c-23.2,0.7-23,36.6,0.1,37.3c29.6,0.8,59.3,0,88.9,0c31.5,0,63.1,0.6,94.7,0c0.6,0,1.2,0,1.8,0
			C281.4,294,281.4,284,275,284z"/>
	</g>
</g>
<g>
	<path fill="#F15C2C" d="M275,329.8H89.1c-6.6,0-12-5.4-12-12v-3.3c0-6.6,5.4-12,12-12H275c6.6,0,12,5.4,12,12v3.3
		C287,324.4,281.6,329.8,275,329.8z"/>
	<g>
		<path d="M275,324.8c-23.9,0-47.7,0-71.6,0c-34.1,0-68.2,0-102.4,0c-3.5,0-7,0.1-10.5,0c-6.7-0.1-10.3-6.4-7.9-12.7
			c2.7-7.1,17.5-4.5,23.2-4.5c35.3,0,70.5,0,105.8,0c15.8,0,31.6,0,47.4,0c6.5,0,21.7-2.8,23,6.4C282.7,318.9,280.9,324.5,275,324.8
			c-6.4,0.3-6.4,10.3,0,10c13.6-0.7,21.2-15.7,15.2-27.7c-3.4-6.8-10.1-9.5-17.2-9.5c-11.8-0.1-23.7,0-35.5,0c-39.3,0-78.7,0-118,0
			c-10,0-20-0.3-29.9,0c-23.2,0.7-23,36.6,0.1,37.3c29.6,0.8,59.3,0,88.9,0c31.5,0,63.1,0.6,94.7,0c0.6,0,1.2,0,1.8,0
			C281.4,334.8,281.4,324.8,275,324.8z"/>
	</g>
</g>
<g>
	<polygon fill="#F15C2C" points="182.1,410 86.1,351.5 273.1,351.5 	"/>
	<g>
		<path d="M184.6,405.6c-28.1-17.1-56.1-34.2-84.2-51.3c-3.9-2.4-7.9-4.8-11.8-7.2c-0.8,3.1-1.7,6.2-2.5,9.3c21,0,42,0,63.1,0
			c33.6,0,67.1,0,100.7,0c7.8,0,15.5,0,23.3,0c-0.8-3.1-1.7-6.2-2.5-9.3c-26.6,17.1-53.1,34.1-79.7,51.2c-3.8,2.4-7.6,4.9-11.4,7.3
			c-5.4,3.5-0.4,12.1,5,8.6c26.6-17.1,53.1-34.1,79.7-51.2c3.8-2.4,7.6-4.9,11.4-7.3c4.1-2.6,2.6-9.3-2.5-9.3c-21,0-42,0-63.1,0
			c-33.6,0-67.1,0-100.7,0c-7.8,0-15.5,0-23.3,0c-5,0-6.7,6.8-2.5,9.3c28.1,17.1,56.1,34.2,84.2,51.3c3.9,2.4,7.9,4.8,11.8,7.2
			C185.1,417.6,190.1,409,184.6,405.6z"/>
	</g>
</g>
</svg>
