<?xml version="1.0" encoding="utf-8"?>
<!-- Generator: Adobe Illustrator 18.1.0, SVG Export Plug-In . SVG Version: 6.00 Build 0)  -->
<svg version="1.1" id="Layer_1" xmlns="http://www.w3.org/2000/svg" xmlns:xlink="http://www.w3.org/1999/xlink" x="0px" y="0px"
	 viewBox="92.5 91.9 418.8 562.5" enable-background="new 92.5 91.9 418.8 562.5" xml:space="preserve">
<path fill="#F15B2A" stroke="#000000" stroke-width="4" stroke-miterlimit="10" d="M492,643.7l-28.3,4.3l-31,2.3L155.3,645
	l-18.3,0.7c-3.1,0-9.5,1.8-18.5-1c-4.7-1.4-12.8-3-16-7c-3.7-4.5,0.8-12.6,1.8-22c0-2.8-3.4-23.8-3.3-26.7c0.1-13.3-3-6.8-2.8-20
	c0.2-12.7,0.4-25.3,0.6-38c0.4-20.7,0.8-41.3,1.2-62c2-97.7,14.3-155.6,12.2-253.9c0-0.4,13.1-22.8,16.7-24.6
	c5.7-2.8,4.2-4.3,6.5-6.2c15.7-13.4,0,0,14.2-11.8c6.6-5.5,10.9-12.2,12.5-13.5c6.5-5.2,12.3-12.3,12.8-13.8
	c0.7-2.3,7-7.6,15.2-13.8c10-7.5,35.7-29.1,39.5-30.5c6.8-2.5,7.7-4.5,11-4.5h18.3h17h-2.7l99.2,0.2l105.9,4.1
	c1.4,0.3,7.3,1.2,10.6,1.9c11.2,2.3,16.8,4.8,16.8,10.7l-2.3,26.3l-5.4,37.7l3.7,444.3l1.7,15C503.4,643.3,498.6,643.7,492,643.7z"
	/>
<path fill="#FFFFFF" stroke="#000000" stroke-width="4" stroke-miterlimit="10" d="M460.5,621.5l-54-3L205,615l-35,8.6l-8-0.3
	c-3,1.2-6.8,1.8-10.7,1.9c-5.6,0.1-9.4-3.5-14.3-4.8c-2.8-0.7-5.9-0.7-7.7-1.7c-1.2-0.7-3.8,0-5-1.5s-2.3-3.2-3.2-4.9
	c-1.5-2.8-0.3-5.7-0.5-7.3l1-6.3l-0.4-5.9l0.7-9.5l2-25l-0.8-34.8l5.7-108.9l2.4-41.3l2.8-110.8l-2.8-38.5
	c-0.5-24.1,74.7-0.2,88.8-29.5c8.5-17.7,2.8-53.2,5-62l9.5-8c-1.1-0.3,4.2,2.7,12.4-0.5l9.6-4.5c20.7-1.8,23.2-1.1,36-1.5l165.6,7.5
	c5.6,0,12.9,2.9,18.2,14.9c1.5,3.4,2.2,7.2,2.3,11l-4,429.7C474.5,587.7,467.1,621.5,460.5,621.5z"/>
<path fill="#F15B2A" stroke="#000000" stroke-width="2" stroke-miterlimit="10" d="M179.3-3.7"/>
<path fill="#F15B2A" stroke="#000000" stroke-width="2" stroke-miterlimit="10" d="M144.2,316.2"/>
<path fill="#F15B2A" stroke="#000000" stroke-width="2" stroke-miterlimit="10" d="M128.8,321.5"/>
<path fill="#FFFFFF" stroke="#000000" stroke-width="2" stroke-miterlimit="10" d="M131.2,398.5"/>
<path fill="#F15B2A" stroke="#000000" stroke-width="2" stroke-miterlimit="10" d="M144.2,416.5"/>
<path fill="#F15A29" stroke="#000000" stroke-width="2" stroke-miterlimit="10" d="M415.7,168.1c3.1-1.3-9.3,0.1-31.7,1.6
	c-2.6,0.1-5.2,0.4-7.8,0.5c0,0,0,0,0.1,0c-8.4,1-16,2-23.8,2.7c-15.8,1.7-31.6,2.7-47.2,5.1c-5.4,0.8-10.7,4.1-15.6,6.9
	c-11.1,7.1-22.1,14.3-33,21.6c-3.9,2.6-4,6.1-2.5,10.5c1.7,4.6,2.6,9.3,3.2,14.1c1.2,9,19.1,24.2,27.7,21.8c5.4-1.6,12.7-1.8,14.6-9
	c2.6,0.1,5.2,0.8,7.6,0.3c35-7.3,70.5-11.5,106.4-8.9c8.3,0.7,16.7-0.4,24.4-0.7c-2.2,3.4-6.1,4.8-12.7,5.1
	c-12.4,0.4-24.8,1.2-37.2,1.8c-1.6,0.1-3.1,0.1-4.5-0.3c-6.1-1.7-10.7-0.5-13.8,5.9c-3,6.1-9.1,3.7-14.2,3.7c4.3-1.4,8.5-3,12.8-4.4
	c-0.3-1.2-0.1-0.8-0.4-1.8c-4,0.5-7.9,0.9-11.9,1.4c0-0.3-0.1-0.5-0.1-0.8c4.9-1.2,10-2.4,14.9-3.5c-0.1-0.9-0.3-1.7-0.3-2.6
	c-2.6-0.1-5.2-0.4-7.6-0.1c-4.9,0.5-9.8,1-14.7,2.1c-3.1,0.7-5.9,2.5-8.8,3.8c2.8,2.9,5.4,6.7,8.8,8.4c3.2,1.4,7.5,0.5,11.3,1.3
	c-3.6,0.7-7.2,1.3-11,2c0.1,0.8,0.1,1.6,0.3,2.2c2.8-0.4,5.8-0.4,8.7-1c14.5-3.3,16.7,1,23.4,11c5.2,7.5,7.9,16.7,11.9,25.1
	c1.9,4.2,2.1,8.1,0.3,12.3l0.4,0.3c0.9-3.5,3.1-7.5,2.3-10.6c-1.9-7.3-4.8-14.5-8.4-21.1c-3.4-6.1-8.4-11.2-12.5-17
	c-1.7-2.4-4.5-5.8-3.9-7.5c1.7-4.2,4.9-7.2,10.3-7.2c16.4,0.1,32.8,0.3,49.3-0.5c6.3-0.3,11.5-4.2,12.9-11.6
	c0.6-3.8,2.5-7.5,3.6-11.1c3.9-12.3,4-25,1.8-37.4c-0.6-3.8-4.7-9.8-7.4-9.9c-8.9-0.4-7.5-2.5-14.5-5c-0.8-0.3-2.3,0.4-3.2,0.7
	c-1.7,0.7-4,0.1-8.8-0.7 M305.8,218c-1.2-0.3-2.7,2.1-4.3,2.4c-5.6,0.9-11.3,2.7-16.6,2c-5.7-0.8-7.9-8.8-3.6-12.6
	c3.8-3.4,8.4-5.6,10.6-6.9c9.7-1,18.1,4.3,18.4,9.9C310.5,215.5,311.1,219.3,305.8,218z M351.1,222.5c-5.8-2.1-11.8-4.3-18-6.5
	c1.8-6.5,3.2-12.7,9.7-15c-1.2,4.7-4.4,10.2-2.8,13.5s7.8,4.3,12,6.3C351.6,221.2,351.3,221.8,351.1,222.5z M412.5,209
	c-7.1,1.7-14.6,3-19-5.6c-0.5-0.9-2.5-1.2-3.8-1.7c0.1-8.1,3.2-12.4,10.5-14.8c7.6-2.4,14.7,0,19,6.5c1.9,3,3.4,6.4,5,9.7
	C420.4,205.1,416.6,208.1,412.5,209z"/>
<path fill="#F15A29" stroke="#000000" stroke-width="2" stroke-miterlimit="10" d="M393.6,305.8c-1.3,2-2.1,4.7-3.9,5.6
	c-11.6,5.9-23.7,10.9-37,9.2c-9.6-1.2-19.1-2.7-28.7-4.3c-7.1-1.2-10-3.8-8.7-11.1c2.2-13.1,4.9-26,8.7-38.6
	c1.3-4.2,6.3-7.1,10.1-11.1c-1.6-5.9-5-8.5-11.5-6.7c-16,4.3-31.9,8.9-47.8,13.3c-2.5,0.7-5,1.2-7.5,1.7c-4,0.8-6.1-1-7.6-5
	c-2.3-5.8-5.8-11-8.3-16.6c-4.3-9.9-8.3-19.9-11.9-30.1c-0.5-1.4,0.9-4.2,2.3-5.5c13.1-12,29-19.5,44.9-26.7l-0.1-0.1
	c-12.3,7.8-24.4,15.8-36.9,23.7c-6.5,4.1-8.5,9.3-5,16.2c6.1,11.9,10,24.6,18.8,35.4c4.1,5.1,7.2,5.5,12,4.2
	c18.9-5.1,37.6-10.2,55.3-15c2.2,3.1,3.8,5.4,5.3,7.5c2.5,3,4.1,6.3-0.3,8.6c-8.7,4.8-11,13.2-12.8,22c-1.4,6.9-3.2,13.7-4.1,20.7
	c-1.2,8.4-0.3,10.3,8.3,11.2c13.6,1.4,27.3,1.7,41,2.1c2.6,0.1,5.2-1.4,7.8-2.2c-16,1.7-31.6,0.5-47.1-2.5c-4.3-0.8-6.9-2-6.2-7.5
	c0.6-7.3,0.3-14.6,0.3-22.1c1.4-2.5,3.1-5,4.4-7.6c2.8-6.3,6.7-10.6,14.4-11c4.3-0.1,8.5,0.5,13.1-3.5c5.6-5,14.9-2.5,20,3.3
	c7.2,8.1,12,17.7,15.4,28.1c1.8,5.6,4.3,10.5-2.2,14.6c-1,0.7-1.3,2.5-1.9,3.9c0.4,0.3,0.8,0.5,1,0.8c2.1-1.8,4-3.5,6.1-5.4
	L393.6,305.8z"/>
<path fill="#F15A29" stroke="#000000" stroke-width="2" stroke-miterlimit="10" d="M413.9,166c0,0-6.2-4.3,7.4-1
	c13.3,3.3-2.3-1.8-12-2.4c-7.1-0.4-15.3-4.8-26.9-8.1c-1.2-0.3-4.5-0.3-5.8-0.1c-15.4,1.7-33.6-1-43.3,2.6
	c-11.9,4.4-11.1,4.3-20.7,8.5c-7.8,3.4-14,5.4-25.6,14.3c1.2-0.3,2.3-0.4,3.4-0.9c2.3-0.9,8.1-4.2,14.4-5.9
	c19.1-5.2,52.5-7.8,77.5-8.2c0.9,0,2.1,0.5,3.4,0.3C402.4,162.8,417.4,166.5,413.9,166z"/>
<path fill="none" d="M343.8,328.8c-7-2.5-14.1-5.2-21.6-7.9c2.2-7.9,3.9-15.2,11.7-18.1c-1.4,5.7-5.3,12.3-3.4,16.2
	c1.9,3.9,9.3,5.2,14.5,7.5C344.4,327.4,344.1,328.2,343.8,328.8z"/>
<path fill="none" d="M310.1,400.8c0,8.8,0.6,17.8-0.3,26.6c-0.6,6.6,2.3,8,7.5,9c18.7,3.5,37.3,5,56.6,3c-3.1,0.9-6.2,2.8-9.3,2.7
	c-16.5-0.5-33-0.8-49.3-2.5c-10.1-1.1-11.2-3.5-9.9-13.5c1.1-8.3,3.3-16.5,5-24.8C310.2,401,310.1,400.8,310.1,400.8z"/>
<path fill="#FFFFFF" d="M295.2,280.1c1.1-0.2,2.2,0.9,2.3,2.2c0,0.5,0.2,1.3-0.5,0.9c-0.2,0-0.3,0.3-0.5,0.5c-0.6,0.2-1.4,0.5-2,0.3
	s-1.1-1.7-0.6-2.5C294.4,280.9,294.8,280.4,295.2,280.1z"/>
<path fill="#FFFFFF" d="M317.1,278.5c1.2-0.2,2.3,0.3,2.3,0.9c0,0.3,0,0.6-0.6,0.5c-0.2,0-0.3,0.2-0.5,0.3c-0.6,0.2-1.4,0.3-2,0.3
	c-0.8,0-0.9-0.8-0.5-1.3C316.3,279,316.9,278.7,317.1,278.5z"/>
<path fill="#FFFFFF" d="M401.5,270.8c0.8,0.2,1.4,0.9,1.2,1.7c0,0.3-0.2,0.8-0.5,0.6c-0.2,0-0.3,0.2-0.5,0.2c-0.5,0-0.9,0-1.4-0.2
	c-0.5-0.3-0.5-1.3,0-1.7C400.8,271.1,401.3,271,401.5,270.8z"/>
<path fill="#FFFFFF" d="M436.3,273.5c0.8-0.2,1.6,0.3,1.7,0.9c0,0.3,0.2,0.6-0.3,0.6c-0.2,0-0.2,0.2-0.3,0.3
	c-0.5,0.2-0.9,0.3-1.4,0.3s-0.8-0.8-0.5-1.3C435.8,273.8,436.1,273.6,436.3,273.5z"/>
<path fill="#FFFFFF" d="M293,345.8c0.8-0.5,1.6-0.3,1.9,0.3c0.2,0.3,0.3,0.6-0.2,0.6c-0.2,0-0.2,0.3-0.2,0.3
	c-0.5,0.3-0.8,0.6-1.2,0.8s-0.9-0.5-0.8-1.1C292.7,346.3,293,345.9,293,345.8z"/>
<path fill="#FFFFFF" d="M313.5,343.6c0.5-0.2,0.8,0.2,0.9,0.5c0,0.2,0,0.3-0.2,0.3l-0.2,0.2c-0.3,0-0.5,0.2-0.8,0.2
	s-0.5-0.5-0.3-0.8C313.2,343.7,313.5,343.6,313.5,343.6z"/>
<path fill="#FFFFFF" d="M338.8,340.6c0.8-0.2,1.6,0.3,1.7,0.9c0,0.3,0.2,0.6-0.3,0.6c-0.2,0-0.2,0.2-0.3,0.3
	c-0.5,0.2-0.9,0.3-1.4,0.3s-0.8-0.8-0.5-1.3C338.2,341.1,338.5,340.8,338.8,340.6z"/>
<path fill="#FFFFFF" d="M450.9,274.7c0.8-0.2,1.6,0.3,1.7,0.9c0,0.3,0.2,0.6-0.3,0.6c-0.2,0-0.2,0.2-0.3,0.3
	c-0.5,0.2-0.9,0.3-1.4,0.3s-0.8-0.8-0.5-1.3C450.4,275.1,450.7,274.9,450.9,274.7z"/>
<path fill="#FFFFFF" d="M455.2,289.1c0.5-0.2,0.8,0,0.8,0.3c0,0.2,0,0.2-0.2,0.2l-0.2,0.2c-0.2,0-0.5,0.2-0.8,0.2s-0.3-0.3-0.2-0.5
	S455.2,289.1,455.2,289.1z"/>
<path fill="#FFFFFF" d="M455.7,297.5c0.2,0.3,0.2,0.8,0,0.9c-0.2,0-0.3,0.2-0.3,0c0,0-0.2,0-0.2-0.2c-0.2-0.2-0.3-0.3-0.5-0.6
	c-0.2-0.2,0.2-0.5,0.5-0.5C455.4,297.4,455.6,297.5,455.7,297.5z"/>
<path fill="#FFFFFF" d="M453.4,309.5c0.2-1.3,0.8-2.2,1.2-2c0.2,0,0.5,0.2,0.2,0.8c0,0.2,0,0.5,0,0.6c-0.2,0.8-0.2,1.4-0.3,2.2
	c-0.2,0.6-0.8,0.8-0.9,0.2C453.5,310.4,453.5,309.8,453.4,309.5z"/>
<path fill="#FFFFFF" d="M359.5,337c0.6-0.3,1.2-0.2,1.2,0.2c0,0.2,0.2,0.3-0.2,0.3l-0.2,0.2c-0.3,0.2-0.6,0.3-0.9,0.5
	c-0.3,0-0.6-0.3-0.5-0.6S359.3,337,359.5,337z"/>
<path fill="#FFFFFF" d="M399.4,337.1c0.8-0.3,1.7,0,1.9,0.6c0.2,0.3,0.3,0.6-0.2,0.6c-0.2,0-0.2,0.3-0.3,0.3
	c-0.5,0.2-0.9,0.5-1.4,0.6c-0.5,0-0.9-0.6-0.6-1.1C399,337.6,399.4,337.3,399.4,337.1z"/>
<path fill="#FFFFFF" d="M416.9,338.6c1.1-0.5,1.9-1.3,1.7-1.6c-0.2-0.2-0.2-0.5-0.8,0c-0.2,0-0.3,0-0.6,0.2
	c-0.6,0.3-1.4,0.5-1.9,0.8c-0.6,0.3-0.5,0.9,0.2,0.9C415.9,338.7,416.5,338.6,416.9,338.6z"/>
<path fill="#FFFFFF" d="M432.9,339.5c0.3-0.5-0.2-1.1-0.6-1.4c-0.3-0.2-0.6-0.3-0.6,0c0,0-0.3,0-0.3,0.2c-0.2,0.3-0.5,0.5-0.5,0.8
	s0.8,0.8,1.1,0.8C432.4,339.7,432.7,339.5,432.9,339.5z"/>
<path fill="#FFFFFF" d="M448.3,339.2c0.6-0.3,0.8-1.6,0.3-2.5c-0.2-0.5-0.5-1.1-0.6-0.6c0,0.2-0.3-0.2-0.5-0.2
	c-0.5,0.2-0.9,0.2-1.1,0.5c-0.3,0.5,0.2,1.9,0.8,2.4C447.5,338.9,447.9,339,448.3,339.2z"/>
<path fill="none" stroke="#000000" stroke-width="2" stroke-miterlimit="10" d="M377.1,246.6"/>
<path fill="none" stroke="#000000" stroke-width="2" stroke-miterlimit="10" d="M316.9,256.2"/>
<path fill="none" stroke="#000000" stroke-width="2" stroke-miterlimit="10" d="M419.3,259.2"/>
<path fill="none" stroke="#000000" stroke-width="2" stroke-miterlimit="10" d="M374.4,246.6"/>
<path fill="none" stroke="#000000" stroke-width="2" stroke-miterlimit="10" d="M318.6,255.6"/>
<path fill="none" stroke="#000000" stroke-width="2" stroke-miterlimit="10" d="M322,253.1"/>
<path fill="none" stroke="#000000" stroke-width="2" stroke-miterlimit="10" d="M319.1,257.6"/>
<path fill="none" stroke="#000000" stroke-width="2" stroke-miterlimit="10" d="M357.5,259.2"/>
<path fill="none" stroke="#000000" stroke-width="2" stroke-miterlimit="10" d="M292,267.8"/>
<path fill="#F15B2A" stroke="#000000" stroke-width="2" stroke-miterlimit="10" d="M410.4,279.7"/>
<path fill="#F15B2A" stroke="#000000" stroke-width="2" stroke-miterlimit="10" d="M393.1,306.7"/>
<path fill="#F15B2A" stroke="#000000" stroke-width="2" stroke-miterlimit="10" d="M392.8,415.1"/>
<path fill="#F15B2A" stroke="#000000" stroke-width="2" stroke-miterlimit="10" d="M394.6,366.3"/>
<path fill="#F15A29" stroke="#000000" stroke-width="4" stroke-miterlimit="10" d="M441,581H170c-6.6,0-16-8.4-16-15l-5-17
	c0-6.6,10.9-14.5,17.5-14.5l31,4.5l129.5,6l65.8,1.5l39.1,0.5c6.6,0,20.8,1.2,20.8,7.8L456,568C456,574.6,447.6,581,441,581z"/>
<path fill="#F15A29" stroke="#000000" stroke-width="4" stroke-miterlimit="10" d="M444,515l-30.7-8.5c-2-0.4-4-0.6-6.1-0.6l-85,3.6
	l-85.2,2.1l-61-6.1c-6.6,0-19,0.7-19-5.9v-6.8c0-6.6,7.4-9.3,14-9.3l22-2.7h247.7c6.6,0,12.7,1.1,12.7,7.7l2.6,9.4
	C456,504.5,450.6,515,444,515z"/>
<path fill="#F15A29" stroke="#000000" stroke-width="4" stroke-miterlimit="10" d="M440.7,453.4h-83.2H195l-22-5.3
	c-6.6,0-16-0.1-16-6.7l6.5-7.4c0-6.6,7.9-14.4,14.5-14.4l191-5l49.6,3.5l22.1,4.5c6.6,0,12,5.4,12,12l-5.1,8
	C447.6,449.2,447.3,453.4,440.7,453.4z"/>
<path fill="#F15A29" stroke="#000000" stroke-width="4" stroke-miterlimit="10" d="M437.1,393H194.6L173,382.7
	c-3.9,0-11.4,3.3-13.6,0.4c-1.5-2-2.5-4.5-2.5-7.3l3-5.7c-2.9-5.5,0.3-12.7,34-17l225.3,3.5c6.6,0,29.5,6.9,29.5,13.5l3.9,5.7
	C452.7,382.4,444.6,396.7,437.1,393z"/>
</svg>
